<svg viewBox="0 0 800 600" xmlns="http://www.w3.org/2000/svg" role="img" aria-label="A customer considering several kinds of work that need to be completed">
  <path d="M120 300c0-140 110-240 270-250 150-9 280 60 320 190 36 118-30 250-170 300-150 54-300 10-370-90-40-58-50-100-50-150z" fill="#e5f8f4"/>
  <ellipse cx="330" cy="520" rx="200" ry="26" fill="#07163d" opacity="0.06"/>

  <rect x="140" y="380" width="330" height="100" rx="24" fill="#ffffff" stroke="#dfe6ea" stroke-width="2"/>
  <rect x="140" y="345" width="330" height="55" rx="20" fill="#ffffff" stroke="#dfe6ea" stroke-width="2"/>
  <rect x="150" y="420" width="55" height="60" rx="14" fill="#dfe6ea"/>
  <rect x="415" y="420" width="55" height="60" rx="14" fill="#dfe6ea"/>

  <g>
    <rect x="500" y="390" width="90" height="90" rx="8" fill="#07163d"/>
    <path d="M500 415h90M545 390v90" stroke="#e5f8f4" stroke-width="3"/>
    <rect x="520" y="340" width="60" height="58" rx="8" fill="#00a68f"/>
    <path d="M520 360h60M550 340v58" stroke="#e5f8f4" stroke-width="3"/>
  </g>

  <path d="M234 360c0-32 25-56 56-56s56 24 56 56v90H234z" fill="#00a68f"/>
  <path d="M232 380c-16 6-26 22-24 40h30" fill="none" stroke="#00a68f" stroke-width="18" stroke-linecap="round"/>
  <rect x="252" y="440" width="76" height="32" rx="15" fill="#07163d"/>

  <circle cx="290" cy="286" r="38" fill="#07163d"/>
  <circle cx="290" cy="302" r="38" fill="#ffd9b8"/>
  <circle cx="277" cy="304" r="3.6" fill="#07163d"/>
  <circle cx="303" cy="304" r="3.6" fill="#07163d"/>
  <path d="M278 318c5 6 22 6 27 0" stroke="#07163d" stroke-width="3" fill="none" stroke-linecap="round"/>

  <g font-family="Arial,Helvetica,sans-serif">
    <line x1="300" y1="252" x2="345" y2="140" stroke="#00a68f" stroke-width="2" stroke-dasharray="2 8" stroke-linecap="round"/>
    <line x1="310" y1="248" x2="400" y2="120" stroke="#00a68f" stroke-width="2" stroke-dasharray="2 8" stroke-linecap="round"/>
    <line x1="325" y1="260" x2="470" y2="220" stroke="#00a68f" stroke-width="2" stroke-dasharray="2 8" stroke-linecap="round"/>

    <g transform="translate(300,95)">
      <rect width="100" height="60" rx="16" fill="#ffffff" stroke="#dfe6ea" stroke-width="2"/>
      <rect x="16" y="20" width="26" height="26" rx="5" fill="#00a68f"/>
      <path d="M16 30h26M29 20v26" stroke="#ffffff" stroke-width="2.5"/>
      <text x="52" y="38" font-size="12" font-weight="700" fill="#07163d">Move</text>
    </g>

    <g transform="translate(350,80)">
      <rect width="110" height="60" rx="16" fill="#ffffff" stroke="#dfe6ea" stroke-width="2"/>
      <circle cx="30" cy="30" r="14" fill="#ff6b5d"/>
      <path d="M24 30l4 4 8-8" stroke="#ffffff" stroke-width="2.5" fill="none" stroke-linecap="round" stroke-linejoin="round"/>
      <text x="52" y="35" font-size="12" font-weight="700" fill="#07163d">Repair</text>
    </g>

    <g transform="translate(430,190)">
      <rect width="120" height="60" rx="16" fill="#ffffff" stroke="#dfe6ea" stroke-width="2"/>
      <circle cx="30" cy="30" r="14" fill="#f4b942"/>
      <path d="M30 20v20M22 30h16" stroke="#ffffff" stroke-width="2.5" stroke-linecap="round"/>
      <text x="52" y="35" font-size="12" font-weight="700" fill="#07163d">Assemble</text>
    </g>
  </g>
</svg>
