<svg xmlns="http://www.w3.org/2000/svg" width="1680" height="1845" viewBox="0 0 1680 1845" font-family="Segoe UI, Inter, Helvetica Neue, Arial, sans-serif">
<rect width="1680" height="1845" fill="#F6F9F9"/>
<rect width="1680" height="168" fill="#02133C"/>
<rect y="163" width="1680" height="5" fill="#079B9D"/>
<text x="44" y="46" font-size="17" font-weight="700" fill="#FFFFFF" letter-spacing="3.6">DONEEO</text>
<text x="162" y="46" font-size="12.5" fill="#13C7BC" letter-spacing="0.4">Intelligence to Get Work Done</text>
<text x="44" y="92" font-size="31" font-weight="700" fill="#FFFFFF">P7 — NOTIFICATIONS, MESSAGING &amp; USER ENGAGEMENT</text>
<text x="44" y="118" font-size="13.4" fill="#C9D9DE">Orchestrate intelligent, contextual and reliable communication across the Doneeo</text>
<rect x="1306" y="30" width="102" height="50" rx="7" fill="#0B2350" stroke="#079B9D" stroke-opacity="0.45"/>
<text x="1357" y="49" text-anchor="middle" font-size="8.6" fill="#13C7BC" letter-spacing="1.3">LAYER</text>
<text x="1357" y="68" text-anchor="middle" font-size="13" font-weight="700" fill="#FFFFFF">P7</text>
<rect x="1418" y="30" width="102" height="50" rx="7" fill="#0B2350" stroke="#079B9D" stroke-opacity="0.45"/>
<text x="1469" y="49" text-anchor="middle" font-size="8.6" fill="#13C7BC" letter-spacing="1.3">EDITION</text>
<text x="1469" y="68" text-anchor="middle" font-size="13" font-weight="700" fill="#FFFFFF">v3.0 clean</text>
<rect x="1530" y="30" width="102" height="50" rx="7" fill="#0B2350" stroke="#079B9D" stroke-opacity="0.45"/>
<text x="1581" y="49" text-anchor="middle" font-size="8.6" fill="#13C7BC" letter-spacing="1.3">DATE</text>
<text x="1581" y="68" text-anchor="middle" font-size="13" font-weight="700" fill="#FFFFFF">2026-08-23</text>
<text x="1306" y="106" font-size="10.6" fill="#13C7BC">Numbering, naming and event linkage corrected.</text>
<text x="1306" y="122" font-size="10.6" fill="#9FB6BE">Items marked FIXED changed in this edition.</text>
<rect x="44" y="206" width="1592" height="94" rx="8" fill="#FFF6E9" stroke="#D9A441"/>
<rect x="44" y="206" width="4" height="94" rx="2" fill="#D9A441"/>
<text x="59" y="226" font-size="11" font-weight="700" letter-spacing="0.8" fill="#8A5B12">PROVENANCE WARNING</text>
<text x="239" y="226" font-size="12" fill="#5C4A26">Provenance warning. The reconciliation package's evidence folder contains a file named P7__KEEP.png that is not P7. It is byte-identical (md5 284da22d…) to P10_DRIFT__DISCARD.png — the Execution / Field</text>
<text x="239" y="243" font-size="12" fill="#5C4A26">Operations poster the register marks as generation drift to discard. The real P7 poster exists only in the figma folder and was never carried into the reconciliation. Anyone rebuilding P7 from that evidence set</text>
<text x="239" y="260" font-size="12" fill="#5C4A26">would have rebuilt the discarded P10 layer. Numbering warning. Section C scopes exclusions as "the domain layers L1-L11", "P2 (Data &amp; FactLedger) and P3 (Identity)" and "L12 (Settlement, Ledger &amp;</text>
<text x="239" y="277" font-size="12" fill="#5C4A26">Reconciliation)", mixing domain and platform numbering — the same board writes those platform layers as P2/P3 in section I. Platform hooks (P1–P6) do match current canon.</text>
<rect x="44" y="320" width="517" height="312" rx="9" fill="#FFFFFF" stroke="#DCE7E7"/>
<rect x="44" y="320" width="4" height="312" rx="2" fill="#02133C"/>
<text x="59" y="342" font-size="12.5" font-weight="700" letter-spacing="0.7" fill="#02133C">01 OWNS</text>
<circle cx="62" cy="357" r="2.4" fill="#02133C"/>
<text x="74" y="361" font-size="12.2" font-weight="400" fill="#233">Deliver timely, relevant and actionable messages</text>
<circle cx="62" cy="374.5" r="2.4" fill="#02133C"/>
<text x="74" y="378.5" font-size="12.2" font-weight="400" fill="#233">Engage users across the journey</text>
<circle cx="62" cy="392.0" r="2.4" fill="#02133C"/>
<text x="74" y="396.0" font-size="12.2" font-weight="400" fill="#233">Support transactional and conversational messaging</text>
<circle cx="62" cy="409.5" r="2.4" fill="#02133C"/>
<text x="74" y="413.5" font-size="12.2" font-weight="400" fill="#233">Personalize by context, role and preference</text>
<circle cx="62" cy="427.0" r="2.4" fill="#02133C"/>
<text x="74" y="431.0" font-size="12.2" font-weight="400" fill="#233">Ensure reliability, delivery and compliance</text>
<circle cx="62" cy="444.5" r="2.4" fill="#02133C"/>
<text x="74" y="448.5" font-size="12.2" font-weight="400" fill="#233">Provide user communication preferences</text>
<circle cx="62" cy="462.0" r="2.4" fill="#02133C"/>
<text x="74" y="466.0" font-size="12.2" font-weight="400" fill="#233">Measure engagement and message effectiveness</text>
<circle cx="62" cy="479.5" r="2.4" fill="#02133C"/>
<text x="74" y="483.5" font-size="12.2" font-weight="400" fill="#233">Route messages to the right channel</text>
<circle cx="62" cy="497.0" r="2.4" fill="#02133C"/>
<text x="74" y="501.0" font-size="12.2" font-weight="400" fill="#233">Personalize content by context and profile</text>
<circle cx="62" cy="514.5" r="2.4" fill="#02133C"/>
<text x="74" y="518.5" font-size="12.2" font-weight="400" fill="#233">Trigger messages from events and workflows</text>
<circle cx="62" cy="532.0" r="2.4" fill="#02133C"/>
<text x="74" y="536.0" font-size="12.2" font-weight="400" fill="#233">Support two-way conversations</text>
<circle cx="62" cy="549.5" r="2.4" fill="#02133C"/>
<text x="74" y="553.5" font-size="12.2" font-weight="400" fill="#233">Manage templates, localization and rendering</text>
<circle cx="62" cy="567.0" r="2.4" fill="#02133C"/>
<text x="74" y="571.0" font-size="12.2" font-weight="400" fill="#233">Handle delivery, retries and fallbacks</text>
<circle cx="62" cy="584.5" r="2.4" fill="#02133C"/>
<text x="74" y="588.5" font-size="12.2" font-weight="400" fill="#233">Track delivery, opens, clicks and replies</text>
<circle cx="62" cy="602.0" r="2.4" fill="#02133C"/>
<text x="74" y="606.0" font-size="12.2" font-weight="400" fill="#233">Support escalation and urgent alerts</text>
<rect x="44" y="652.5" width="517" height="138" rx="9" fill="#FFFFFF" stroke="#DCE7E7"/>
<rect x="44" y="652.5" width="4" height="138" rx="2" fill="#8A3B4A"/>
<text x="59" y="674.5" font-size="12.5" font-weight="700" letter-spacing="0.7" fill="#8A3B4A">02 DOES NOT OWN</text>
<circle cx="62" cy="689.5" r="2.4" fill="#8A3B4A"/>
<text x="74" y="693.5" font-size="12.2" font-weight="400" fill="#233">Business or orchestration decisions (the domain layers L1-L11)</text>
<circle cx="62" cy="707.0" r="2.4" fill="#8A3B4A"/>
<text x="74" y="711.0" font-size="12.2" font-weight="400" fill="#233">Data storage or identity (P2 (Data &amp; FactLedger) and P3 (Identity))</text>
<circle cx="62" cy="724.5" r="2.4" fill="#8A3B4A"/>
<text x="74" y="728.5" font-size="12.2" font-weight="400" fill="#233">Security enforcement (P4)</text>
<circle cx="62" cy="742.0" r="2.4" fill="#8A3B4A"/>
<text x="74" y="746.0" font-size="12.2" font-weight="400" fill="#233">Financial transactions (L12 (Settlement, Ledger &amp; Reconciliation))</text>
<circle cx="62" cy="759.5" r="2.4" fill="#8A3B4A"/>
<text x="74" y="763.5" font-size="12.2" font-weight="400" fill="#233">State or truth (P2) or orchestration (P1)</text>
<rect x="44" y="810.0" width="517" height="242" rx="9" fill="#FFFFFF" stroke="#DCE7E7"/>
<rect x="44" y="810.0" width="4" height="242" rx="2" fill="#075A6B"/>
<text x="59" y="832.0" font-size="12.5" font-weight="700" letter-spacing="0.7" fill="#075A6B">03 KEY INPUTS</text>
<text x="59" y="851.0" font-size="12.2" font-weight="400" fill="#233">Message context sources:</text>
<circle cx="62" cy="864.5" r="2.4" fill="#075A6B"/>
<text x="74" y="868.5" font-size="12.2" font-weight="400" fill="#233">WorkCase / Job State</text>
<circle cx="62" cy="882.0" r="2.4" fill="#075A6B"/>
<text x="74" y="886.0" font-size="12.2" font-weight="400" fill="#233">User Profile &amp; Preferences</text>
<circle cx="62" cy="899.5" r="2.4" fill="#075A6B"/>
<text x="74" y="903.5" font-size="12.2" font-weight="400" fill="#233">Location &amp; Time</text>
<circle cx="62" cy="917.0" r="2.4" fill="#075A6B"/>
<text x="74" y="921.0" font-size="12.2" font-weight="400" fill="#233">Device &amp; Channel</text>
<circle cx="62" cy="934.5" r="2.4" fill="#075A6B"/>
<text x="74" y="938.5" font-size="12.2" font-weight="400" fill="#233">Behavior &amp; History</text>
<circle cx="62" cy="952.0" r="2.4" fill="#075A6B"/>
<text x="74" y="956.0" font-size="12.2" font-weight="400" fill="#233">Risk &amp; Safety Signals</text>
<circle cx="62" cy="969.5" r="2.4" fill="#075A6B"/>
<text x="74" y="973.5" font-size="12.2" font-weight="400" fill="#233">AI Insights &amp; Predictions</text>
<circle cx="62" cy="987.0" r="2.4" fill="#075A6B"/>
<text x="74" y="991.0" font-size="12.2" font-weight="400" fill="#233">External Systems</text>
<circle cx="62" cy="1004.5" r="2.4" fill="#075A6B"/>
<text x="74" y="1008.5" font-size="12.2" font-weight="400" fill="#233">Business Rules</text>
<circle cx="62" cy="1022.0" r="2.4" fill="#075A6B"/>
<text x="74" y="1026.0" font-size="12.2" font-weight="400" fill="#233">Seasonality &amp; Trends</text>
<rect x="44" y="1072.5" width="517" height="138" rx="9" fill="#FFFFFF" stroke="#DCE7E7"/>
<rect x="44" y="1072.5" width="4" height="138" rx="2" fill="#075A6B"/>
<text x="59" y="1094.5" font-size="12.5" font-weight="700" letter-spacing="0.7" fill="#075A6B">04 AUTHORITATIVE OUTPUTS</text>
<circle cx="62" cy="1109.5" r="2.4" fill="#075A6B"/>
<text x="74" y="1113.5" font-size="12.2" font-weight="400" fill="#233">MessageEvent (02)</text>
<circle cx="62" cy="1127.0" r="2.4" fill="#075A6B"/>
<text x="74" y="1131.0" font-size="12.2" font-weight="400" fill="#233">MessageDelivery (03)</text>
<circle cx="62" cy="1144.5" r="2.4" fill="#075A6B"/>
<text x="74" y="1148.5" font-size="12.2" font-weight="400" fill="#233">MessageEngagement (04)</text>
<circle cx="62" cy="1162.0" r="2.4" fill="#075A6B"/>
<text x="74" y="1166.0" font-size="12.2" font-weight="400" fill="#233">UserPreferences (05)</text>
<circle cx="62" cy="1179.5" r="2.4" fill="#075A6B"/>
<text x="74" y="1183.5" font-size="12.2" font-weight="400" fill="#233">OptInConsent (06)</text>
<rect x="44" y="1230.0" width="517" height="435" rx="9" fill="#FFFFFF" stroke="#DCE7E7"/>
<rect x="44" y="1230.0" width="4" height="435" rx="2" fill="#079B9D"/>
<text x="59" y="1252.0" font-size="12.5" font-weight="700" letter-spacing="0.7" fill="#079B9D">05 ENGINES / COMPONENTS</text>
<circle cx="62" cy="1267.0" r="2.4" fill="#079B9D"/>
<text x="74" y="1271.0" font-size="12.2" font-weight="400" fill="#233">Message Orchestration — event-driven triggers, workflow-based</text>
<text x="74" y="1288.5" font-size="12.2" font-weight="400" fill="#233">messages, journey orchestration, sequencing &amp; throttling, conditional</text>
<text x="74" y="1306.0" font-size="12.2" font-weight="400" fill="#233">logic, A/B message variants</text>
<circle cx="62" cy="1319.5" r="2.4" fill="#079B9D"/>
<text x="74" y="1323.5" font-size="12.2" font-weight="400" fill="#233">Template &amp; Content Management — reusable templates, dynamic content,</text>
<text x="74" y="1341.0" font-size="12.2" font-weight="400" fill="#233">localization &amp; translation, versioning &amp; approvals, branding &amp;</text>
<text x="74" y="1358.5" font-size="12.2" font-weight="400" fill="#233">theming, rich content support</text>
<circle cx="62" cy="1372.0" r="2.4" fill="#079B9D"/>
<text x="74" y="1376.0" font-size="12.2" font-weight="400" fill="#233">Personalization &amp; Targeting — user profile &amp; preferences, role-based</text>
<text x="74" y="1393.5" font-size="12.2" font-weight="400" fill="#233">targeting, contextual personalization, behavior-based targeting,</text>
<text x="74" y="1411.0" font-size="12.2" font-weight="400" fill="#233">geographic &amp; time-based, segmentation &amp; audiences</text>
<circle cx="62" cy="1424.5" r="2.4" fill="#079B9D"/>
<text x="74" y="1428.5" font-size="12.2" font-weight="400" fill="#233">Delivery &amp; Routing — channel selection, priority routing, delivery</text>
<text x="74" y="1446.0" font-size="12.2" font-weight="400" fill="#233">optimization, retry &amp; fallback, rate limiting, carrier &amp; provider</text>
<text x="74" y="1463.5" font-size="12.2" font-weight="400" fill="#233">management</text>
<circle cx="62" cy="1477.0" r="2.4" fill="#079B9D"/>
<text x="74" y="1481.0" font-size="12.2" font-weight="400" fill="#233">Conversations &amp; Replies — two-way messaging, threading &amp; context,</text>
<text x="74" y="1498.5" font-size="12.2" font-weight="400" fill="#233">quick replies, human handoff, auto-responders, conversation history</text>
<circle cx="62" cy="1512.0" r="2.4" fill="#079B9D"/>
<text x="74" y="1516.0" font-size="12.2" font-weight="400" fill="#233">Preferences &amp; Control — channel preferences, frequency control, quiet</text>
<text x="74" y="1533.5" font-size="12.2" font-weight="400" fill="#233">hours, opt-in / opt-out, topic subscriptions, preference center</text>
<circle cx="62" cy="1547.0" r="2.4" fill="#079B9D"/>
<text x="74" y="1551.0" font-size="12.2" font-weight="400" fill="#233">Analytics &amp; Engagement — delivery status, open / read / click, reply &amp;</text>
<text x="74" y="1568.5" font-size="12.2" font-weight="400" fill="#233">response rate, conversion tracking, engagement scoring, campaign</text>
<text x="74" y="1586.0" font-size="12.2" font-weight="400" fill="#233">performance</text>
<circle cx="62" cy="1599.5" r="2.4" fill="#079B9D"/>
<text x="74" y="1603.5" font-size="12.2" font-weight="400" fill="#233">Compliance &amp; Safety — SPAM / abuse prevention, content filtering, PII</text>
<text x="74" y="1621.0" font-size="12.2" font-weight="400" fill="#233">&amp; data protection, legal compliance, retention policies, audit &amp;</text>
<text x="74" y="1638.5" font-size="12.2" font-weight="400" fill="#233">logging</text>
<rect x="581" y="320" width="517" height="348" rx="9" fill="#FFFFFF" stroke="#DCE7E7"/>
<rect x="581" y="320" width="4" height="348" rx="2" fill="#079B9D"/>
<text x="596" y="342" font-size="12.5" font-weight="700" letter-spacing="0.7" fill="#079B9D">06 OPERATING &amp; DECISION PATH</text>
<text x="596" y="361" font-size="12.2" font-weight="400" fill="#233">Message flow, typical path:</text>
<circle cx="599" cy="374.5" r="5.5" fill="#079B9D" opacity="0.16"/>
<text x="611" y="378.5" font-size="12.2" font-weight="400" fill="#233">Event / Trigger — from any layer</text>
<circle cx="599" cy="392.0" r="5.5" fill="#079B9D" opacity="0.16"/>
<text x="611" y="396.0" font-size="12.2" font-weight="400" fill="#233">Message Decision — orchestration</text>
<circle cx="599" cy="409.5" r="5.5" fill="#079B9D" opacity="0.16"/>
<text x="611" y="413.5" font-size="12.2" font-weight="400" fill="#233">Audience &amp; Preference — targeting</text>
<circle cx="599" cy="427.0" r="5.5" fill="#079B9D" opacity="0.16"/>
<text x="611" y="431.0" font-size="12.2" font-weight="400" fill="#233">Template &amp; Content — render</text>
<circle cx="599" cy="444.5" r="5.5" fill="#079B9D" opacity="0.16"/>
<text x="611" y="448.5" font-size="12.2" font-weight="400" fill="#233">Channel Selection — routing</text>
<circle cx="599" cy="462.0" r="5.5" fill="#079B9D" opacity="0.16"/>
<text x="611" y="466.0" font-size="12.2" font-weight="400" fill="#233">Delivery — send</text>
<circle cx="599" cy="479.5" r="5.5" fill="#079B9D" opacity="0.16"/>
<text x="611" y="483.5" font-size="12.2" font-weight="400" fill="#233">User Receives — read / interact</text>
<circle cx="599" cy="497.0" r="5.5" fill="#079B9D" opacity="0.16"/>
<text x="611" y="501.0" font-size="12.2" font-weight="400" fill="#233">User Action / Reply — optional</text>
<circle cx="599" cy="514.5" r="5.5" fill="#079B9D" opacity="0.16"/>
<text x="611" y="518.5" font-size="12.2" font-weight="400" fill="#233">Track &amp; Capture — events</text>
<circle cx="599" cy="532.0" r="5.5" fill="#079B9D" opacity="0.16"/>
<text x="611" y="536.0" font-size="12.2" font-weight="400" fill="#233">Analytics &amp; Insights — measure</text>
<circle cx="599" cy="549.5" r="5.5" fill="#079B9D" opacity="0.16"/>
<text x="611" y="553.5" font-size="12.2" font-weight="400" fill="#233">Feedback Loop — optimize</text>
<text x="596" y="571.0" font-size="12.2" font-weight="400" fill="#233">Failed sends re-enter at Failed / Retry / Fallback. Replies and</text>
<text x="611" y="588.5" font-size="12.2" font-weight="400" fill="#233">interactions</text>
<text x="596" y="606.0" font-size="12.2" font-weight="400" fill="#233">re-enter as Reply / Interaction. The measure step feeds Learn &amp; Optimize</text>
<text x="611" y="623.5" font-size="12.2" font-weight="400" fill="#233">back</text>
<text x="596" y="641.0" font-size="12.2" font-weight="400" fill="#233">into orchestration.</text>
<rect x="581" y="687.5" width="517" height="85" rx="9" fill="#FFFFFF" stroke="#DCE7E7"/>
<rect x="581" y="687.5" width="4" height="85" rx="2" fill="#079B9D"/>
<text x="596" y="709.5" font-size="12.5" font-weight="700" letter-spacing="0.7" fill="#079B9D">07 DECISION GATES</text>
<circle cx="599" cy="724.5" r="2.4" fill="#079B9D"/>
<text x="611" y="728.5" font-size="12.2" font-weight="400" fill="#233">(not specified in source poster — this board carries no decision-gate</text>
<text x="611" y="746.0" font-size="12.2" font-weight="400" fill="#233">section)</text>
<rect x="581" y="792.5" width="517" height="505" rx="9" fill="#FFFFFF" stroke="#DCE7E7"/>
<rect x="581" y="792.5" width="4" height="505" rx="2" fill="#075A6B"/>
<text x="596" y="814.5" font-size="12.5" font-weight="700" letter-spacing="0.7" fill="#075A6B">08 DATA / ARTIFACT OBJECTS</text>
<circle cx="599" cy="829.5" r="2.4" fill="#075A6B"/>
<text x="611" y="833.5" font-size="12.2" font-weight="400" fill="#233">MessageEvent (02)</text>
<circle cx="599" cy="847.0" r="2.4" fill="#075A6B"/>
<text x="611" y="851.0" font-size="12.2" font-weight="400" fill="#233">MessageDelivery (03)</text>
<circle cx="599" cy="864.5" r="2.4" fill="#075A6B"/>
<text x="611" y="868.5" font-size="12.2" font-weight="400" fill="#233">MessageEngagement (04)</text>
<circle cx="599" cy="882.0" r="2.4" fill="#075A6B"/>
<text x="611" y="886.0" font-size="12.2" font-weight="400" fill="#233">UserPreferences (05)</text>
<circle cx="599" cy="899.5" r="2.4" fill="#075A6B"/>
<text x="611" y="903.5" font-size="12.2" font-weight="400" fill="#233">OptInConsent (06)</text>
<circle cx="599" cy="917.0" r="2.4" fill="#075A6B"/>
<text x="611" y="921.0" font-size="12.2" font-weight="400" fill="#233">Reports &amp; Analytics (14)</text>
<text x="596" y="938.5" font-size="12.2" font-weight="400" fill="#233">Message types: Transactional (receipts, confirmations) · Operational</text>
<text x="611" y="956.0" font-size="12.2" font-weight="400" fill="#233">(updates,</text>
<text x="596" y="973.5" font-size="12.2" font-weight="400" fill="#233">status) · Marketing (promotions, offers) · System (alerts, maintenance) ·</text>
<text x="611" y="991.0" font-size="12.2" font-weight="400" fill="#233">Safety</text>
<text x="596" y="1008.5" font-size="12.2" font-weight="400" fill="#233">(warnings, emergencies) · Conversational (chat, replies) · Engagement</text>
<text x="611" y="1026.0" font-size="12.2" font-weight="400" fill="#233">(tips,</text>
<text x="596" y="1043.5" font-size="12.2" font-weight="400" fill="#233">nudges) · Survey / Feedback · Billing &amp; Payment · Escalation / High</text>
<text x="611" y="1061.0" font-size="12.2" font-weight="400" fill="#233">Priority</text>
<text x="596" y="1078.5" font-size="12.2" font-weight="400" fill="#233">Channels: In-App Inbox · Push Notifications · Email · SMS / OTP · Voice /</text>
<text x="611" y="1096.0" font-size="12.2" font-weight="400" fill="#233">Call ·</text>
<text x="596" y="1113.5" font-size="12.2" font-weight="400" fill="#233">WhatsApp / RCS · Web Chat · Provider / Executor App · Web Dashboard ·</text>
<text x="611" y="1131.0" font-size="12.2" font-weight="400" fill="#233">External</text>
<text x="596" y="1148.5" font-size="12.2" font-weight="400" fill="#233">Webhooks · API to Partner Systems</text>
<text x="596" y="1166.0" font-size="12.2" font-weight="400" fill="#233">Delivery states: Queued · Sending · Sent · Delivered · Read / Opened ·</text>
<text x="596" y="1183.5" font-size="12.2" font-weight="400" fill="#233">Clicked / Engaged · Replied · Failed · Bounced · Suppressed ·</text>
<text x="611" y="1201.0" font-size="12.2" font-weight="400" fill="#233">Unsubscribed</text>
<text x="596" y="1218.5" font-size="12.2" font-weight="400" fill="#233">User journeys supported: Onboarding &amp; Welcome · Job Lifecycle Updates ·</text>
<text x="596" y="1236.0" font-size="12.2" font-weight="400" fill="#233">Provider / Executor Updates · Payment &amp; Billing · Safety &amp; Compliance ·</text>
<text x="596" y="1253.5" font-size="12.2" font-weight="400" fill="#233">Reminders &amp; Deadlines · Promotions &amp; Offers · Surveys &amp; Feedback ·</text>
<text x="596" y="1271.0" font-size="12.2" font-weight="400" fill="#233">Escalations &amp; Alerts · Re-engagement</text>
<rect x="581" y="1317.5" width="517" height="85" rx="9" fill="#FFFFFF" stroke="#DCE7E7"/>
<rect x="581" y="1317.5" width="4" height="85" rx="2" fill="#13C7BC"/>
<text x="596" y="1339.5" font-size="12.5" font-weight="700" letter-spacing="0.7" fill="#13C7BC">09 EVENTS EMITTED</text>
<circle cx="599" cy="1354.5" r="2.4" fill="#13C7BC"/>
<text x="611" y="1358.5" font-size="12.2" font-weight="400" fill="#233">(not specified in source poster as a typed event list; the board</text>
<text x="611" y="1376.0" font-size="12.2" font-weight="400" fill="#233">models delivery states rather than domain events)</text>
<rect x="581" y="1422.5" width="517" height="85" rx="9" fill="#FFFFFF" stroke="#DCE7E7"/>
<rect x="581" y="1422.5" width="4" height="85" rx="2" fill="#13C7BC"/>
<text x="596" y="1444.5" font-size="12.5" font-weight="700" letter-spacing="0.7" fill="#13C7BC">10 EVENTS CONSUMED</text>
<circle cx="599" cy="1459.5" r="2.4" fill="#13C7BC"/>
<text x="611" y="1463.5" font-size="12.2" font-weight="400" fill="#233">(not specified in source poster; triggers arrive as "Event / Trigger —</text>
<text x="611" y="1481.0" font-size="12.2" font-weight="400" fill="#233">from any layer")</text>
<rect x="581" y="1527.5" width="517" height="190" rx="9" fill="#FFFFFF" stroke="#DCE7E7"/>
<rect x="581" y="1527.5" width="4" height="190" rx="2" fill="#079B9D"/>
<text x="596" y="1549.5" font-size="12.5" font-weight="700" letter-spacing="0.7" fill="#079B9D">11 INTEGRATIONS / CALLBACKS</text>
<circle cx="599" cy="1564.5" r="2.4" fill="#079B9D"/>
<text x="611" y="1568.5" font-size="12.2" font-weight="400" fill="#233">From P1 (Orchestrator) — Events / Commands</text>
<circle cx="599" cy="1582.0" r="2.4" fill="#079B9D"/>
<text x="611" y="1586.0" font-size="12.2" font-weight="400" fill="#233">From P2 (Ledger) — Facts / State Changes</text>
<circle cx="599" cy="1599.5" r="2.4" fill="#079B9D"/>
<text x="611" y="1603.5" font-size="12.2" font-weight="400" fill="#233">From P3 (Identity) — User / Role / Profile</text>
<circle cx="599" cy="1617.0" r="2.4" fill="#079B9D"/>
<text x="611" y="1621.0" font-size="12.2" font-weight="400" fill="#233">From P4 (Security) — Alerts / Restrictions</text>
<circle cx="599" cy="1634.5" r="2.4" fill="#079B9D"/>
<text x="611" y="1638.5" font-size="12.2" font-weight="400" fill="#233">From P5 (Integrations) — External Events</text>
<circle cx="599" cy="1652.0" r="2.4" fill="#079B9D"/>
<text x="611" y="1656.0" font-size="12.2" font-weight="400" fill="#233">From P6 (AI / Observability) — Insights</text>
<circle cx="599" cy="1669.5" r="2.4" fill="#079B9D"/>
<text x="611" y="1673.5" font-size="12.2" font-weight="400" fill="#233">To Channels / Providers — Delivery APIs</text>
<circle cx="599" cy="1687.0" r="2.4" fill="#079B9D"/>
<text x="611" y="1691.0" font-size="12.2" font-weight="400" fill="#233">To Analytics / Warehouse — Engagement Data</text>
<rect x="1118" y="320" width="517" height="172" rx="9" fill="#FFFFFF" stroke="#DCE7E7"/>
<rect x="1118" y="320" width="4" height="172" rx="2" fill="#5A6B72"/>
<text x="1133" y="342" font-size="12.5" font-weight="700" letter-spacing="0.7" fill="#5A6B72">12 FAILURE &amp; RECOVERY</text>
<circle cx="1136" cy="357" r="2.4" fill="#5A6B72"/>
<text x="1148" y="361" font-size="12.2" font-weight="400" fill="#233">Auto retry &amp; backoff</text>
<circle cx="1136" cy="374.5" r="2.4" fill="#5A6B72"/>
<text x="1148" y="378.5" font-size="12.2" font-weight="400" fill="#233">Fallback channels</text>
<circle cx="1136" cy="392.0" r="2.4" fill="#5A6B72"/>
<text x="1148" y="396.0" font-size="12.2" font-weight="400" fill="#233">Rate limiting</text>
<circle cx="1136" cy="409.5" r="2.4" fill="#5A6B72"/>
<text x="1148" y="413.5" font-size="12.2" font-weight="400" fill="#233">Concurrency control</text>
<circle cx="1136" cy="427.0" r="2.4" fill="#5A6B72"/>
<text x="1148" y="431.0" font-size="12.2" font-weight="400" fill="#233">Circuit breaker</text>
<circle cx="1136" cy="444.5" r="2.4" fill="#5A6B72"/>
<text x="1148" y="448.5" font-size="12.2" font-weight="400" fill="#233">Idempotency</text>
<circle cx="1136" cy="462.0" r="2.4" fill="#5A6B72"/>
<text x="1148" y="466.0" font-size="12.2" font-weight="400" fill="#233">Failed / Retry / Fallback re-entry into the message flow</text>
<rect x="1118" y="512.5" width="517" height="102" rx="9" fill="#FFFFFF" stroke="#DCE7E7"/>
<rect x="1118" y="512.5" width="4" height="102" rx="2" fill="#5A6B72"/>
<text x="1133" y="534.5" font-size="12.5" font-weight="700" letter-spacing="0.7" fill="#5A6B72">13 HUMAN REVIEW</text>
<circle cx="1136" cy="549.5" r="2.4" fill="#5A6B72"/>
<text x="1148" y="553.5" font-size="12.2" font-weight="400" fill="#233">Human handoff from a conversation</text>
<circle cx="1136" cy="567.0" r="2.4" fill="#5A6B72"/>
<text x="1148" y="571.0" font-size="12.2" font-weight="400" fill="#233">Content approval</text>
<circle cx="1136" cy="584.5" r="2.4" fill="#5A6B72"/>
<text x="1148" y="588.5" font-size="12.2" font-weight="400" fill="#233">(no further human-review triggers specified in source poster)</text>
<rect x="1118" y="635.0" width="517" height="260" rx="9" fill="#FFFFFF" stroke="#DCE7E7"/>
<rect x="1118" y="635.0" width="4" height="260" rx="2" fill="#5A6B72"/>
<text x="1133" y="657.0" font-size="12.5" font-weight="700" letter-spacing="0.7" fill="#5A6B72">14 SECURITY / PRIVACY</text>
<circle cx="1136" cy="672.0" r="2.4" fill="#5A6B72"/>
<text x="1148" y="676.0" font-size="12.2" font-weight="400" fill="#233">Data Privacy (GDPR, PIPEDA)</text>
<circle cx="1136" cy="689.5" r="2.4" fill="#5A6B72"/>
<text x="1148" y="693.5" font-size="12.2" font-weight="400" fill="#233">Consent Management</text>
<circle cx="1136" cy="707.0" r="2.4" fill="#5A6B72"/>
<text x="1148" y="711.0" font-size="12.2" font-weight="400" fill="#233">Message Audit Trail</text>
<circle cx="1136" cy="724.5" r="2.4" fill="#5A6B72"/>
<text x="1148" y="728.5" font-size="12.2" font-weight="400" fill="#233">Content Approval</text>
<circle cx="1136" cy="742.0" r="2.4" fill="#5A6B72"/>
<text x="1148" y="746.0" font-size="12.2" font-weight="400" fill="#233">Retention &amp; Deletion</text>
<circle cx="1136" cy="759.5" r="2.4" fill="#5A6B72"/>
<text x="1148" y="763.5" font-size="12.2" font-weight="400" fill="#233">Accessibility (WCAG)</text>
<circle cx="1136" cy="777.0" r="2.4" fill="#5A6B72"/>
<text x="1148" y="781.0" font-size="12.2" font-weight="400" fill="#233">Language &amp; Localization</text>
<circle cx="1136" cy="794.5" r="2.4" fill="#5A6B72"/>
<text x="1148" y="798.5" font-size="12.2" font-weight="400" fill="#233">Legal Disclaimers</text>
<circle cx="1136" cy="812.0" r="2.4" fill="#5A6B72"/>
<text x="1148" y="816.0" font-size="12.2" font-weight="400" fill="#233">CAN-SPAM / CASL</text>
<circle cx="1136" cy="829.5" r="2.4" fill="#5A6B72"/>
<text x="1148" y="833.5" font-size="12.2" font-weight="400" fill="#233">Policy Enforcement</text>
<circle cx="1136" cy="847.0" r="2.4" fill="#5A6B72"/>
<text x="1148" y="851.0" font-size="12.2" font-weight="400" fill="#233">PII &amp; data protection</text>
<circle cx="1136" cy="864.5" r="2.4" fill="#5A6B72"/>
<text x="1148" y="868.5" font-size="12.2" font-weight="400" fill="#233">SPAM / abuse prevention</text>
<rect x="1118" y="915.0" width="517" height="242" rx="9" fill="#FFFFFF" stroke="#DCE7E7"/>
<rect x="1118" y="915.0" width="4" height="242" rx="2" fill="#5A6B72"/>
<text x="1133" y="937.0" font-size="12.5" font-weight="700" letter-spacing="0.7" fill="#5A6B72">15 1M-JOB SCALABILITY</text>
<circle cx="1136" cy="952.0" r="2.4" fill="#5A6B72"/>
<text x="1148" y="956.0" font-size="12.2" font-weight="400" fill="#233">High delivery success</text>
<circle cx="1136" cy="969.5" r="2.4" fill="#5A6B72"/>
<text x="1148" y="973.5" font-size="12.2" font-weight="400" fill="#233">Low latency</text>
<circle cx="1136" cy="987.0" r="2.4" fill="#5A6B72"/>
<text x="1148" y="991.0" font-size="12.2" font-weight="400" fill="#233">Bulk sending optimization</text>
<circle cx="1136" cy="1004.5" r="2.4" fill="#5A6B72"/>
<text x="1148" y="1008.5" font-size="12.2" font-weight="400" fill="#233">Provider health monitoring</text>
<circle cx="1136" cy="1022.0" r="2.4" fill="#5A6B72"/>
<text x="1148" y="1026.0" font-size="12.2" font-weight="400" fill="#233">Concurrency control</text>
<circle cx="1136" cy="1039.5" r="2.4" fill="#5A6B72"/>
<text x="1148" y="1043.5" font-size="12.2" font-weight="400" fill="#233">Rate limiting</text>
<text x="1133" y="1061.0" font-size="12.2" font-weight="400" fill="#233">Engagement metrics tracked: Delivery Rate · Open Rate · Click Through</text>
<text x="1148" y="1078.5" font-size="12.2" font-weight="400" fill="#233">Rate (CTR) ·</text>
<text x="1133" y="1096.0" font-size="12.2" font-weight="400" fill="#233">Reply Rate · Conversion Rate · Unsubscribe Rate · Spam Report Rate · Time</text>
<text x="1148" y="1113.5" font-size="12.2" font-weight="400" fill="#233">to</text>
<text x="1133" y="1131.0" font-size="12.2" font-weight="400" fill="#233">First Interaction · Engagement Score · Journey Completion Rate</text>
<rect x="1118" y="1177.5" width="517" height="260" rx="9" fill="#FFFFFF" stroke="#DCE7E7"/>
<rect x="1118" y="1177.5" width="4" height="260" rx="2" fill="#02133C"/>
<text x="1133" y="1199.5" font-size="12.5" font-weight="700" letter-spacing="0.7" fill="#02133C">16 NON-NEGOTIABLE INVARIANTS</text>
<text x="1133" y="1218.5" font-size="12.2" font-weight="600" fill="#02133C">Communication principles, as printed:</text>
<circle cx="1136" cy="1232.0" r="2.4" fill="#02133C"/>
<text x="1148" y="1236.0" font-size="12.2" font-weight="600" fill="#02133C">Relevant — context-aware messages</text>
<circle cx="1136" cy="1249.5" r="2.4" fill="#02133C"/>
<text x="1148" y="1253.5" font-size="12.2" font-weight="600" fill="#02133C">Timely — right time, not too much</text>
<circle cx="1136" cy="1267.0" r="2.4" fill="#02133C"/>
<text x="1148" y="1271.0" font-size="12.2" font-weight="600" fill="#02133C">Personalized — user, role and context</text>
<circle cx="1136" cy="1284.5" r="2.4" fill="#02133C"/>
<text x="1148" y="1288.5" font-size="12.2" font-weight="600" fill="#02133C">Actionable — clear call to action</text>
<circle cx="1136" cy="1302.0" r="2.4" fill="#02133C"/>
<text x="1148" y="1306.0" font-size="12.2" font-weight="600" fill="#02133C">Reliable — deliver or retry</text>
<circle cx="1136" cy="1319.5" r="2.4" fill="#02133C"/>
<text x="1148" y="1323.5" font-size="12.2" font-weight="600" fill="#02133C">Respectful — user preferences first</text>
<circle cx="1136" cy="1337.0" r="2.4" fill="#02133C"/>
<text x="1148" y="1341.0" font-size="12.2" font-weight="600" fill="#02133C">Two-Way — listen and respond</text>
<circle cx="1136" cy="1354.5" r="2.4" fill="#02133C"/>
<text x="1148" y="1358.5" font-size="12.2" font-weight="600" fill="#02133C">Inclusive — accessible and localized</text>
<circle cx="1136" cy="1372.0" r="2.4" fill="#02133C"/>
<text x="1148" y="1376.0" font-size="12.2" font-weight="600" fill="#02133C">Compliant — legal and policy aligned</text>
<circle cx="1136" cy="1389.5" r="2.4" fill="#02133C"/>
<text x="1148" y="1393.5" font-size="12.2" font-weight="600" fill="#02133C">Measurable — track and improve</text>
<circle cx="1136" cy="1407.0" r="2.4" fill="#02133C"/>
<text x="1148" y="1411.0" font-size="12.2" font-weight="600" fill="#02133C">P7 writes communication facts to P2</text>
<rect x="1118" y="1457.5" width="517" height="85" rx="9" fill="#EAF9F6" stroke="#DCE7E7"/>
<rect x="1118" y="1457.5" width="4" height="85" rx="2" fill="#075A6B"/>
<text x="1133" y="1479.5" font-size="12.5" font-weight="700" letter-spacing="0.7" fill="#075A6B">17 GOLDEN REGRESSION SCENARIOS</text>
<circle cx="1136" cy="1494.5" r="2.4" fill="#075A6B"/>
<text x="1148" y="1498.5" font-size="12.2" font-weight="400" fill="#233">(none — this board predates the golden-scenario template and carries</text>
<text x="1148" y="1516.0" font-size="12.2" font-weight="400" fill="#233">no such section)</text>
<rect y="1781" width="1680" height="64" fill="#02133C"/>
<text x="44" y="1808" font-size="11.6" fill="#FFFFFF">Board regenerated from the corrected canonical set. Text is real SVG text — readable by script, not only by eye.</text>
<text x="44" y="1826" font-size="10.4" fill="#13C7BC">Every consumed event on this board has exactly one producer, or is declared external. Open rulings are listed in the canonical file, not decided here.</text>
<text x="1636" y="1817" text-anchor="end" font-size="11.6" font-weight="700" fill="#13C7BC">P7</text>
</svg>